<svg version="1" xmlns="http://www.w3.org/2000/svg" width="533.333" height="533.333" viewBox="0 0 400.000000 400.000000"><path d="M0 200v200H107.3l-.7-5.3c-.4-2.8-1.2-5.4-1.7-5.5-.6-.3-.6-.8-.1-1.5s.6-3.9.2-7.2c-1.1-10.2 1.5-18.8 10.1-33.2 5.1-8.4 10.7-14.1 16.9-17.2 4.2-2.1 8.3-4.4 9-5.1.3-.3 1.6-1.1 3-1.8 1.4-.6 3.2-1.6 4-2.1.8-.5 9.1-4.7 18.4-9.3 12.2-6 17.1-9 17.7-10.6.7-1.9.4-2.4-1.6-3.2-1.4-.5-2.5-1.4-2.5-2 0-.5-1-1-2.1-1-1.9 0-2-.2-.8-1.7s1.2-1.6-.3-1c-1.2.4-1.8.2-1.8-.8 0-.8-.4-1.5-.9-1.5s-.8-.8-.6-1.8c.1-.9-.6-2.5-1.7-3.6-1.1-1-1.7-2.4-1.4-3.2.3-.7.1-1.6-.5-1.9-.5-.4-.7-1.1-.3-1.6.3-.5.1-1.5-.4-2.2-1.2-1.4-1.1-6.7.1-6.7.4 0 .3-.8-.2-1.9-.6-1.1-.7-3-.2-4.7 1-3.7.4-5.5-1.7-4.7-1.5.6-1.5.4-.4-.9 1.7-2.2 1-9.7-1.1-11.3-.9-.6-2.2-3.2-2.8-5.8-.7-2.5-1.6-4.4-2.1-4.1-.4.3-.8-.4-.8-1.6 0-1.2-.4-1.8-1-1.5-.5.3-1-.3-1-1.4 0-1.1-.5-2.3-1-2.6-.6-.3-1-1.5-1-2.6 0-1-.5-1.9-1.1-1.9-.8 0-1-1.6-.6-5 .3-2.7.2-5.2-.3-5.5-.4-.3-.6-2.4-.3-4.6.9-6.6-1.5-29.5-4.3-41.1-1.5-5.9-2.4-11.4-2-12.3.3-.8 1.7-2 3.2-2.5 2.5-1 2.6-1.3 1.9-5.8-.4-2.6-.9-5.4-1-6.2-.1-.8-.5-2.2-.8-3-.3-.8-.8-3.8-1-6.5-.3-2.8-.7-6.1-.9-7.5-.3-1.4-.8-4.4-1.2-6.7-.5-2.8-1.4-4.4-2.6-4.8-3.6-1.2-3.2-5.5.7-5.7 1-.1 2.4-1.2 3-2.5.8-1.7.8-2.1 0-1.6-.7.4-.6-.1.2-1.1 1.3-1.5 1.5-1.6 2.3-.2.7 1.3 1.3 1.4 3 .5 1.6-.9 2.3-.8 2.9.2.6 1 .9 1.1.9.1 0-2.2 1.9-1.3 2.6 1.3.4 1.7 1 2.3 1.8 1.6 1.6-1.2 6.9-1.1 7.9.3.5.6.6-.2.3-1.9-.2-1.7-.1-3.7.5-4.5.9-1.5 1.2.9 1 7 0 1.4.2 1.9.5 1.2.4-.9 1-1 1.9-.2.6.5 2.5 1.2 4.1 1.4 1.6.3 4.7.9 6.9 1.5 5.2 1.3 9.7 2.2 11.3 2.3.6.1 1.2.4 1.2.8 0 .3 1.6.4 3.5.2 2.6-.3 3.5 0 3.5 1.1 0 1 .9 1.3 2.7 1.1 1.5-.1 3.3.2 3.9.7 1.3 1 4.4.2 4.4-1.2 0-.5.9-.9 2-.9 1.3 0 1.7-.5 1.4-1.4-.3-.8.4-1.9 1.6-2.6 1.3-.7 2-1.8 1.7-2.9-.2-.9.1-2.2.8-2.8 1.6-1.4 7.6-4.6 9.4-4.9.8-.2 1.7-.8 2.1-1.4.6-.9 1.3-.9 2.9-.1 1.7 1 2.1.9 2.1-.4 0-.8.9-1.5 2-1.5s2-.7 2-1.6c0-2 4.1-1.5 5.5.7 5.7 9.4 6.3 11.6 6.7 22.8.3 6.7.9 11.6 1.6 12.3 2.1 2.1 1.3 3.2-1 1.2-1.3-1.2-1.8-1.3-1.3-.4.5.8 1 2 1.1 2.7.4 2.5 4 6.2 6.6 6.8 2.7.6 6.3 5.8 5.3 7.6-.3.4-.1 1 .5 1.4.5.3 1 1.4 1 2.4s.7 2.4 1.5 3.1c.9.7 1.3 1.5 1.1 1.8-.3.2 0 1.4.6 2.6.7 1.1 1.1 2.5 1 2.9-.1.4.5 1 1.3 1.3.9.4 1.5 1.9 1.5 3.6 0 1.7.4 2.7 1 2.3 1.4-.9 1.2 1.5-.4 6.1-.7 2.2-1.2 5.1-1 6.6.3 3.3-1.3 3.8-1.9.5-.4-1.9-.4-1.9-.6.5 0 1.4.5 2.9 1.2 3.1.8.4.9.8.1 1.4-.6.4-1 2.1-.9 3.8.1 1.6-.2 3.5-.7 4.2-.5.6-.8 2-.7 3 .6 4.8-2.5 13.7-6.2 17.6-2.1 2.3-2.5 1.6-.9-1.3.9-1.7.8-1.8-.7-1.3-1 .4-2.7 1.5-3.7 2.5-1.1 1-2.3 1.8-2.7 1.8-.5 0-1.1 1.6-1.5 3.5-.5 2.8-1 3.4-2.4 3-1.8-.6-4.2 2.2-5.3 6-.4 1.1-.4.2-.2-2 1.8-16.6 1.8-16.5-.1-18.6-1.3-1.4-1.4-1.8-.3-1.4.8.3 2.2 1.8 3.2 3.3 1.1 1.9 1.7 2.2 1.7 1 0-.9-2-3.5-4.5-5.9-2.5-2.4-4.5-4.9-4.5-5.5 0-.7-.7-2-1.6-2.8-.8-.9-1.2-2-.9-2.6.3-.5-.1-1-1-1-1.1 0-1.5-.5-1.1-1.5.3-.9-.3-1.9-1.5-2.6-1.3-.6-1.8-1.6-1.5-2.6.4-.9.2-2.1-.4-2.8-2.2-2.6 3.4-11.5 8.2-13.1 1.1-.3 1.8-.8 1.5-1-.2-.2-3 .5-6.3 1.6-8.6 2.8-13.9 2.5-11.3-.7.9-1 .8-1.3 0-1.3-.7 0-.9-.5-.6-1 .3-.6 1.5-1 2.5-1s4.7-1.3 8.2-2.9c4.4-2.1 6.5-2.6 6.8-1.8.6 1.4 8 1.9 8 .5 0-.6-.9-1.2-2-1.5-1.1-.3-1.7-.9-1.5-1.4.5-.7-3.5-1.8-8.9-2.4-1.2-.1-2.2-.4-2.3-.5-.5-.5-2.4-.8-6.5-.9-5.9-.2-3.2-1.5 6.5-3.1 5.8-1 8.1-1.8 8.8-3.2.8-1.5.7-1.8-.3-1.6-.7.2-2.7-.7-4.3-1.8-3.4-2.5-8.9-3-8.1-.8.4 1.1.2 1.1-1.4.2-1.4-.9-3.4-.8-9.2.6-4 .9-8.5 1.7-10 1.6-2.2 0-2.5.3-2 2.2.4 1.7.2 2-1.2 1.5-1.3-.5-1.9-.1-2.3 1.3-.3 1.1-.9 2-1.4 2-.5 0-.9.4-.9.9 0 .4 1 .8 2.3.8 5.4.1 6.3.3 4.8 1.2-1.6 1-1.7 9.1-.1 12.1.5.9.7 2 .4 2.2-.7.8 2.8 7.8 3.9 7.8.4 0 .6.8.3 1.8-.5 1.3.1 2.2 1.9 3 2.6 1.2 3.4 3.2 1.4 3.2-.7 0 1.1 2.4 4 5.4 4.6 5 6.8 8.8 3.9 7-.7-.4-.8-.3-.4.5.4.6 1.1.9 1.6.6.4-.3 1.3.2 2 1 1.1 1.3.8 1.4-1.8 1.1-2.6-.3-2.9 0-2.4 1.8.5 1.9.4 1.9-1.1.7-.9-.7-1.4-1.7-1.2-2.2.3-.4-.8-.3-2.5.2-1.7.6-3.6.9-4.4.6-.7-.3-2.6.1-4.2 1-1.6.8-4 1.2-5.4.9-1.6-.3-3.4.3-5 1.6-1.4 1.1-1.9 1.7-1.3 1.3.7-.3 2.4.6 3.8 2.1s2.5 2.3 2.5 1.9c0-.4.7-.1 1.7.6 1.5 1.3 1.6 1.1.9-1.4-.4-1.9-.3-2.6.4-2.2.5.3 1 1.4 1 2.3 0 1.3.2 1.4.9.4.6-1 1-1 2.1.3.9 1.1 1.5 1.3 2 .4.6-.8.9-.8 1.4 0 .7 1 .2 1.3-3.4 1.5-1.6.1-2.8 4.6-1.2 4.6.6 0 .8-1 .5-2.3l-.6-2.2 1.9 2.1c1.7 2 2.2 2 3.9.8 1.1-.8 2.5-1.2 3.2-1 .7.3 1.5.1 1.8-.3.3-.5 1.5-.7 2.6-.4 1.9.5 2.1.3 1.7-2.1-.4-2.2-.3-2.4.9-1.4.8.6 1.1 1.8.7 2.7-.4.9-.6 2.4-.6 3.4.1 1.2-.4 1.7-1.4 1.3-.9-.3-1.4.1-1.4 1.3 0 2-2.3 4.4-3.3 3.4-.4-.3-1.6.5-2.7 1.8-1.5 1.7-2.3 2-2.6 1.1-.4-.9-1.3-.7-3.2.8-1.7 1.4-2.9 1.7-3.5 1.1-.7-.7-1.4-.5-2.2.6-.7.9-2.8 1.7-4.9 1.8-2 .1-4 .6-4.4 1-.4.4 2.6.5 6.6.3 3.9-.2 7.2-.1 7.2.2 0 .4-.7 1.5-1.5 2.6-.8 1-1.5 2.2-1.5 2.6 0 1 5.5-.7 5.6-1.8.4-2.6 1.7-5.3 2.4-4.9.4.3 1.3-.2 2-1s2.3-1.5 3.7-1.5c1.4 0 2.1-.4 1.8-1-.3-.6 0-1 .7-1s3.3-2.1 5.9-4.6c2.6-2.6 5.2-4.3 5.8-4 1.4.9 1.4 6.3 0 7.1-1 .7-3.2 5.6-2.9 6.4.1.2-.2.7-.7 1-1.3.8-4.3 8.7-4.3 11.2 0 1.1-.4 1.8-.9 1.5-1-.6-2.2 8-1.4 10.1.3.7.9 1 1.4.7.5-.3.6.1.3.9s-.1 1.8.5 2.2c.6.3 1.1.1 1.1-.5s.5-.8 1-.5c1.2.7.5 4.4-1.7 9.7-1.6 3.8-1.1 11.4.7 10.3.5-.3 1.1-.1 1.5.5.3.5 0 1-.7 1-1.4 0-4.8-2-3.4-2 .5 0 .3-.6-.3-1.4-.6-.7-.8-2.2-.5-3.2.4-1.1.4-1.6 0-1.2-.5.4-1.3 3.3-2 6.4-1.1 6-3.6 8.7-3.6 4 0-1.7-.5-2.6-1.6-2.6-1.3 0-1.5.8-1.2 4 .3 3.1 0 3.9-1.2 3.7-1.1-.1-1.5.7-1.4 3.6.1 2.8-.2 3.5-.9 2.8-.8-.8-1.5-.5-2.4 1.1-.9 1.7-1.2 1.9-1.3.6 0-.9-.3-2.4-.7-3.4-.4-1.1-.2-1.5.4-1.1 1.3.8 3.3-3.5 3.3-7 0-2.5-.1-2.5-1.9-.9-1.1 1-1.7 2.4-1.4 3.2 1.2 3.2-1.4 1.1-2.8-2.3-1.3-3-1.4-4.3-.5-6.3l1.1-2.5.3 3c.5 5.4 1.1 6 3.2 3.7 1.1-1.2 2-2.4 2-2.8 0-.4.6-1.5 1.4-2.3 2-2.4 3.7-7.9 2.5-8.6-.5-.4-.9-.1-.9.5s-.4.8-1 .5c-.5-.3-1-.1-1 .4 0 .6.5 1.1 1.2 1.1.6 0 .1 1.1-1.2 2.5-1.8 1.9-2.6 2.2-3.2 1.3-.6-1-.8-1-.8.1 0 .8-.3 1.1-.7.8-.3-.4.2-1.6 1.2-2.7 1.4-1.5 1.6-2.5.9-4.1-.9-2-1.1-1.8-2.2 2-1.2 3.7-3.2 5.7-3.2 3 0-.5-.4-.8-.8-.5-.5.3-.9 2.1-1 4-.1 1.8-.2 3.8-.3 4.2-.3 1.9.2 3.3 1.7 4.8.8.9 1.1 1.6.5 1.6-.6 0-1.6-.6-2.3-1.3-1-1.1-1.6-.9-3.5 1.4-1.3 1.5-2.3 3.1-2.3 3.7 0 .6-.6 1.3-1.3 1.5-.9.4-.8.8.3 1.6.9.6 1.7.7 2.1 0 .3-.6 1.1-.4 1.9.6 1.1 1.3.8 1.5-2.1 1.6l-3.4.1 4 1.3c6 2 7.5 1.8 7.6-.8.1-2.1.1-2.1.8.3.7 2.6.7 2.6 9 1.7 1.3-.1 2.6-.8 2.9-1.5.2-.8-.2-1-1.5-.5-1 .3-1.5.2-1.1-.2 1-1.1 6.9-1.4 6.2-.4-.2.4.5.7 1.7.6 1.9-.1 1.9-.3-.8-2.4-3.3-2.7-2.5-3 2-.6 1.8.9 3.6 1.6 4 1.5.5-.1.6.1.3.6-.2.4 0 1.4.5 2.2.8 1.3 1.3 1.1 3-1 1.1-1.4 1.8-1.9 1.4-1.3-.3.7-.3 1.3 0 1.3 1 0 3.5-2.7 3.5-3.8 0-1.7 4.8-6.4 5.9-5.8 1.7 1.1 1.3-.5-.6-1.9-1.1-.8-1.3-1.4-.5-1.9.7-.4 1.2-.2 1.2.3 0 .6.5 1.1 1 1.1.6 0 1-.7 1-1.6 0-.8.5-1.2 1-.9.9.5 1.4-.7 1.1-2.7 0-.4.7-.9 1.7-1.2 2.3-.8 4.3-5.5 3.5-8.4-.5-2.1-.3-2.2 2.8-1.9 3.2.3 3.4.2 3.3-2.7 0-1.7-.4-3.9-.8-4.9-.5-1-.6-2.1-.2-2.4.3-.4.6.1.6 1 0 1 .8 1.7 1.8 1.7 2.1 0 7.4-3.4 6.6-4.2-.3-.4.3-1.9 1.2-3.4 1.4-2 1.5-2.9.6-3.2-.6-.2-1.2-.8-1.2-1.4 0-.6.6-.8 1.3-.5.9.3 1.2-.5.9-2.9-.3-2.7.2-4 2.6-6.5 1.6-1.7 3.2-2.7 3.5-2.2.3.4 1 3.5 1.7 6.8s1.9 7.8 2.8 10c2 4.9 7.7 14.8 9.8 17 .9.8 1.4 1.9 1.2 2.4-.8 2-10.2 9.2-11.4 8.7-.8-.3-1.4.1-1.4.8 0 3-13.3 14.9-18.1 16.1-3 .7-9.4 5.8-10.9 8.6-1 1.7-.8 1.8 1.6.9 1.5-.6 3.8-1.8 5.3-2.8 1.4-1 3.7-2.3 5.1-3 2.3-1.1 6.8-4 13.6-8.7 5.5-3.7 10.7-8 16.6-13.7 5.9-5.7 5.9-5.7 3.3-6.4-1.7-.4-2.3-1-1.7-1.6 1.1-1.1 8.4 1.8 13.1 5.2 1.6 1.1 3.4 2 4.1 2 1.3 0 7.5 4.5 10.5 7.6 2.3 2.5 14.5 12.9 22 18.8 2.8 2.2 11.4 10.3 19.1 18 7.8 7.8 15.5 15.2 17.1 16.6 1.5 1.4 4 3.8 5.4 5.5 1.4 1.6 4 4.3 5.7 5.9l3.2 3V0H0v200zM189.7 56.6c-.3.3-1.2.4-1.9.1-.8-.3-.5-.6.6-.6 1.1-.1 1.7.2 1.3.5zm-20.1 1.6c.5.7.3.8-.6.3-.9-.5-1.1-.4-.6.3.4.7 1.9 1.2 3.4 1.2 4.7.1.3 1.8-6.6 2.6-4.8.5-6.2.4-6.2-.6 0-.8.3-1.1.6-.8.3.4 2.2-.5 4.1-1.8 4-2.7 4.9-2.9 5.9-1.2zm7.9-.2c-.3.5-1.2 1-1.8 1-.7 0-.6-.4.3-1 1.9-1.2 2.3-1.2 1.5 0zm4.5 1c-.8.5-1.9 1-2.5 1-.5 0-.3-.5.5-1s2-1 2.5-1c.6 0 .3.5-.5 1zm-25 7c-2.4 1.5-3.7 1.1-1.6-.5 1.1-.8 2.2-1.2 2.5-.9.3.3-.1.9-.9 1.4zm20 0c0-1 .4-.9 1.6.1.9.7 2.3 1.4 3.1 1.5 3.6.6 10.4 9.6 8.2 10.9-.6.4-1.1.5-1.3.4-3.6-5.3-7.6-9.3-10.4-10.4-3.7-1.6-7.7-1.1-6.6.7.4.6.2.8-.4.4-.6-.3-1.3-.2-1.7.4-.3.5-1.7.7-3 .4-1.2-.3-2.6-.1-2.9.5-.4.6-1.9 1.1-3.4 1.2l-2.7.1 2.5.7c2.3.7 2.1.8-1.5 1.4-2.2.4-5.1.7-6.5.7-2.3-.1-2.3-.2-.8-1.4 1-.7 1.5-1.6 1.1-1.9-.6-.6 1.2-.9 8.4-1.1 2.4-.1 4.5-1.6 2.2-1.6-.8 0-.1-.7 1.5-1.5 3.5-1.9 3.7-1.9 3 0-.8 1.9.4 1.8 4.1-.4 2.1-1.3 3.4-1.5 4.3-.8.8.6 1.2.6 1.2-.3zm-22 3.1c0 1.4-1.7 1-2.3-.5-.4-1-.1-1.3.9-.9.7.3 1.4.9 1.4 1.4zm51.3 4.9c.3 1.1.1 2-.4 2s-.9-.9-.9-2 .2-2 .4-2 .6.9.9 2zm-35.9-.1c.4.5-.3.7-1.4.4-2.3-.6-2.6-1.3-.6-1.3.8 0 1.7.4 2 .9zm-17.8 3.2c1.9 1.1 3.4 2.5 3.4 3s1.8 2.1 4 3.5c2.2 1.5 3.8 2.9 3.6 3.2-.3.3-1.7-.3-3.2-1.2-2.5-1.7-2.6-1.7-1.9.3.9 2.9-.1 2.6-3.5-1.1-1.6-1.7-3.2-2.9-3.5-2.6-.3.3.9 2 2.7 3.8 2.9 2.9 3 3.2.9 2.5-2-.6-2.3-.4-1.8.9.4.9.2 1.6-.4 1.6-.5 0-1.3-1-1.8-2.3-.9-2.3-4.1-5.6-4.1-4.2 0 .4-.6.2-1.4-.4-.8-.7-2.7-1.1-4.2-.9-2.1.2-2.7-.1-2.9-1.8-.1-1.6.7-2.5 3.2-3.5 1.8-.7 3.3-1.6 3.3-2.1 0-1.5 4.3-.8 7.6 1.3zm10.6-1.3c.2.5 1.8 1.2 3.6 1.5 2.1.4 3.1.3 2.7-.3-1.1-1.8.1-1.1 2.4 1.4l2.3 2.5-3-.4c-1.7-.2-4.4-1.1-6.1-1.9-3.1-1.7-4.9-3.6-3.2-3.6.5 0 1.1.4 1.3.8zm26.8 8.1c-.1 1.3-.3 1.3-1.5-.3-1.9-2.6-1.9-4.2 0-2.6.8.7 1.5 2 1.5 2.9zm7-.4c0 .5-.5.3-1-.5s-1-2-1-2.5c0-.6.5-.3 1 .5s1 1.9 1 2.5zm-23.9 1.7c1.1 2.1 1.1 2.2-.4.9-1-.7-1.7-1.7-1.7-2.2 0-1.5.9-1 2.1 1.3zm9.9 1.6c0 1.2-.3 1.3-1.2.4-.6-.6-1.3-1.9-1.4-2.7-.2-1.3.1-1.4 1.2-.4.8.6 1.4 1.9 1.4 2.7zm-44.5.3c-2.8 1.1-3.5 1.1-3.5-.2 0-.5.5-.7 1.2-.3.8.5.9.2.5-1-.6-1.4-.4-1.5 1.6-.5 2.1 1.2 2.1 1.2.2 2zm29.6-.9c1.6 1.9 1.8 2 1.2.4-.4-1.4-.3-1.7.6-1.2.7.4 1.1 1.8 1 2.9-.4 5.1.1 6.9 1.6 6.3 1-.4 1.5.1 1.5 1.6 0 1.7-.3 1.8-1.5.8-.8-.6-1.9-.9-2.5-.5-.9.5-1.6-3.2-1.1-5.9.1-.5-1-2.2-2.5-3.7-1.5-1.6-2.2-2.9-1.5-2.9.7 0 2.1 1 3.2 2.2zm-20.4 1c-.3.8-.6.5-.6-.6-.1-1.1.2-1.7.5-1.3.3.3.4 1.2.1 1.9zm45.5.3c.4.5.8 1.3.8 1.7 0 1.5-1.5.8-2.8-1.2-1-1.6-1-2 0-1.8.7.2 1.6.7 2 1.3zm-7.2 8c0 .5-.5.3-1-.5s-1-2-1-2.5c0-.6.5-.3 1 .5s1 1.9 1 2.5zm86 46.2c0 .4-.6-.2-1.4-1.3-.8-1-1.9-2-2.5-2-2.4-.3-2.5-.5-1.1-1.4 1.2-.8 1.1-1.1-.8-1.6-1.8-.5-2-.9-1.1-2.1 1-1.2 1.7-.6 4.1 3.1 1.5 2.5 2.8 4.9 2.8 5.3zm32.3-1c6.6 7 5.9 25.1-1.5 39.6-2.9 5.8-9.2 12.1-14 14.3-2.4 1-4.6 2.3-5 2.8-.8 1.2-1.1.4-2.8-6.2-2-7.8-1.3-38.2.9-38.2.4 0 1.4-1.1 2.1-2.5.8-1.4 2.9-3.3 4.7-4.2 1.8-.8 3.3-1.9 3.3-2.3 0-.4.9-1.9 2.1-3.4 2.7-3.5 6.7-3.4 10.2.1zm-29.2 66c1.3 1.6 1.2 1.7-.3.4-1.7-1.3-2.2-2.1-1.4-2.1.2 0 1 .8 1.7 1.7zm-26.3 5.1c1.7 2.2 1.5 4.2-.4 4.2-1 0-1.4-.6-1-1.5.3-.9-.3-1.9-1.7-2.6-1.9-1.1-2-1-1 .2.7.9.9 2 .3 2.9-.8 1.2-1 1.2-1.6-.3-.3-.9-.9-1.5-1.4-1.2-.4.2-.5-.6-.3-1.9.4-1.9 1-2.2 3.1-1.8 1.5.2 3.3 1.1 4 2zm-3.4 12.7c-.7 1.6-2.4 2.1-2.4.6 0-.8.7-1.3 2.7-2 .1-.1 0 .6-.3 1.4zm3.1 15.1c.3 6.4-1.3 13.2-2.8 11.7-.4-.3-.7-.1-.7.5s.4 1.3.9 1.6c1.1.7.2 4.6-1.1 4.6-.5 0-.7-.4-.4-.9.3-.5 0-1.4-.8-2-1.1-.9-1.5-.8-2 .6-.4 1-.6 1.8-.5 1.8.1 0-.6 1.8-1.6 4s-2.1 5.3-2.5 7c-.5 2.2-.7 1.3-.7-3.5 0-3.6-.6-7.6-1.3-9-1.2-2.3-1.2-2.4.3-1.1 1 .7 1.7 1 1.8.5 0-.5.5 0 1 1.1.8 1.8.9 1.7.5-.5-.2-1.4 0-3.6.4-5 .8-2.5.8-2.4 1 .5.1 2.9.2 2.9 1.1.6.5-1.3.7-4.7.4-7.5-.3-3.8-.2-4.6.6-3.1.8 1.8.9 1.7.4-.5-.2-1.4-.5-3.5-.5-4.8 0-1.4-.4-2-1-1.7-.6.4-.8 1.5-.5 2.5.7 2.3-1.3 3.7-2.8 2-.9-1-.9-1.1.1-.6.8.5 1.2-.1 1.2-1.7 0-1.4.7-3 1.5-3.7.8-.7 1.5-1.7 1.5-2.2 0-.5.6-1.5 1.3-2.2 2.1-2.4 4.8 3.3 5.2 11zm32.5-2.1c.7.9.8 1.5.2 1.5-.5 0-1.2-.7-1.6-1.5-.3-.8-.4-1.5-.2-1.5s.9.7 1.6 1.5zm-115 9.9c0 .8-.4 1.8-1 2.1-.5.3-1-.3-1-1.4 0-1.2.5-2.1 1-2.1.6 0 1 .6 1 1.4zm68.1 29.9c-1 .9-1.1.8-.5-.6.3-1 .9-1.5 1.2-1.2.3.3 0 1.1-.7 1.8zm9.9 3.7c0 .5-.2 1-.4 1-.3 0-.8-.5-1.1-1-.3-.6-.1-1 .4-1 .6 0 1.1.4 1.1 1zm-.9 12.7c1.3 1.6 1.2 1.7-.3.4-1.7-1.3-2.2-2.1-1.4-2.1.2 0 1 .8 1.7 1.7zm-24.3 7.7c-.7.8-1.5 1.2-1.7 1.1-.5-.6 1-2.5 2-2.5.5 0 .4.6-.3 1.4z"/><path d="M184.6 72.2c2.1 2.5 4.1 4.4 4.4 4.2.2-.3-1.6-2.4-4-4.7l-4.3-4.2 3.9 4.7zM301.9 144.3c1.2 2.1 2.5 6.8 3.2 12.7 1.1 8.4 1.4 9.1 2.1 6 .9-4.1-.7-16.7-2.5-18.9-3.3-4.2-5.5-4.1-2.8.2zM291.2 164.7c0 4.2-.6 8.2-1.6 10.5-1.9 4.5-.3 5.1 1.9.8 1.1-2.2 2.3-3 4.3-3 3.3 0 4.5-.8 6.1-3.7 2.7-5.2-.2-12-3.1-7.3-1.5 2.3-2.8 2.6-2.8.7 0-1.3-3.1-4.7-4.2-4.7-.4 0-.6 3-.6 6.7zM243.6 231.7c-.8 2.7.7 8.6 2.3 9.1 1 .3 1.2-.2.8-1.9-.4-1.3-.7-3.9-.7-5.7 0-3.4-1.5-4.4-2.4-1.5zM237.1 260.6c0 1.1.3 1.4.6.6.3-.7.2-1.6-.1-1.9-.3-.4-.6.2-.5 1.3zM218.8 116.7c.7.3 1.6.2 1.9-.1.4-.3-.2-.6-1.3-.5-1.1 0-1.4.3-.6.6zM219.7 125.6c.3.7.9 1.4 1.4 1.4 1.4 0 1-1.7-.5-2.3-1-.4-1.3-.1-.9.9zM220 131c.8.5 2 1 2.5 1 .6 0 .3-.5-.5-1s-1.9-1-2.5-1c-.5 0-.3.5.5 1zM260 141.9c0 .6.5 1.3 1 1.6.6.3 1-.1 1-.9 0-.9-.4-1.6-1-1.6-.5 0-1 .4-1 .9zM249.8 152.7c.7.3 1.6.2 1.9-.1.4-.3-.2-.6-1.3-.5-1.1 0-1.4.3-.6.6zM170 159.9c0 1.2 3.2 2 6.8 1.8 1.2-.1 2.1-.6 1.9-1.2-.5-1.3-8.7-1.9-8.7-.6zM167.5 165c.3.5 1.5 1 2.6 1 2.2 0 2.4 1.1.7 2.8-.8.8-.8 1.5-.2 2.1 1.3 1.4 9.4 1.5 12.5.3 1.5-.6 3-.8 3.3-.5.3.3 0-.6-.7-2s-2.2-3.1-3.5-3.7c-3-1.3-15.5-1.4-14.7 0zM162.7 166.5c-1.5.8-2.5 1-2.2.5.4-.6.2-1-.4-1-1.7 0-2.1 1.8-.5 2.4 2.6 1 3.9.7 5.2-1.4 1.5-2.4 1.5-2.4-2.1-.5zM183 175.5c-1.9 2.3-.8 2.6 1.9.4 1.6-1.3 1.8-1.9.8-1.9-.8 0-2 .7-2.7 1.5zM211.4 193c-3 1.2-3.9 2.9-2.3 4.5 1.2 1.1 1.9 1 4.3-1 1.6-1.2 2.5-2.8 2.2-3.4-.8-1.3-1.3-1.3-4.2-.1zM172.9 203.1c-4.3 3.9-7.6 11.9-5 11.9 1.5 0 8.3-10.7 7.9-12.6-.3-1.6-.6-1.5-2.9.7zM198.7 213.7c-.4.3-.7 2.6-.7 4.9 0 3.8.4 4.4 3.1 5.8 3.2 1.6 6.5 1.1 3.5-.6-.9-.5-1.6-1.8-1.6-2.9 0-1.1-.4-1.8-.9-1.5-.5.3-1.1-.1-1.5-.9-.3-.8-.1-1.5.5-1.5s.7-.5.4-1c-.4-.6-1.1-.7-1.7-.4-.7.5-.9.1-.5-.9.7-1.8.5-2.1-.6-1zM212 220c-.1 2.3-.2 2.3-1 .5-.8-1.8-.9-1.7-.9.7-.1 3.4 1.5 4.4 2.9 1.8.7-1.4.8-2.6.1-3.8-.9-1.5-1.1-1.4-1.1.8zM205 221.8c0 .5.7 1.6 1.6 2.3 1.4 1.2 1.6 1.1 1.3-.5-.4-2-2.9-3.5-2.9-1.8zM175.6 224.7c-.3.6.1 1.4.9 1.7.8.3 1.5.1 1.7-.5.2-.5 1.4-.2 2.8.8 3.8 2.7 5.7 2.4 5.2-.7-.4-2.5-.7-2.7-5.3-2.6-2.7.1-5.1.6-5.3 1.3zM223 248.1c0 .5-.5.7-1.1.3-.7-.4-.9.2-.7 1.7.1 1.3.8 2.3 1.3 2.2.6-.1 1.6.4 2.4 1 1.2 1 1.3.9.8-.6-.4-1-.7-2.1-.7-2.3 0-.3-.5-.2-1.1.2-.8.4-.9 0-.4-1.5.3-1.1.4-2.1.1-2.1-.3 0-.6.5-.6 1.1zM206 248.9c0 .5.7 1.4 1.5 2.1 1.6 1.4 1.8 1 .9-1.4-.6-1.7-2.4-2.2-2.4-.7zM204.4 253.3c.3 1 .6 2.2.6 2.6 0 .4 1 .7 2.1.8 1.8.2 2 0 .8-1-.8-.7-2-1.9-2.8-2.7-1.2-1.3-1.3-1.3-.7.3zM223.6 256.6c1.8 2.9 1.8 2.9-.1 1.4-1.3-.9-1.1-.4.6 1.5 1.4 1.7 2.9 3.7 3.2 4.7.7 1.9-1.2 8.8-2.5 8.8-.4 0-.8.8-.7 1.7 0 1.3.2 1.4.6.4.4-.9.7-1 1.2-.2 1 1.6 6.1-3.3 6-5.6-.1-1.7-.2-1.7-.6-.1-.2 1-.9 1.8-1.4 1.8-.6 0-.8-.8-.5-1.8 1.7-5.7 1.7-7.2 0-10.1-1-1.6-2.5-3.2-3.3-3.5-.9-.3-2.2-.9-2.9-1.2-1-.4-.8.3.4 2.2zM213.6 256.8c-.2.4-.1 1.4.5 2.2.5.8.9 2.8.9 4.5 0 1.6.4 2.5.8 2 1-1.4 3.7-1.3 3.7.2 0 .6.3 1.5.7 1.9 1 .9.2-3-1.1-5.4-.6-1.1-.7-2.2-.4-2.6.4-.3-.2-1.3-1.3-2.1-2.2-1.7-3.1-1.8-3.8-.7zM203.5 259.9c.3 1.6.7 4.5.7 6.3.1 3.5 1.4 6.8 3.2 8 .7.5.5.8-.5.8-1.6 0-3.4 4.9-2.3 6 .8.7 2.3-2.3 1.7-3.4-.3-.5-.1-.6.4-.3 1 .7 4.2-2.1 3.5-3-.2-.3 0-.8.4-1.1.4-.4.4-.2.1.4-.4.7-.1 1.4.7 1.7 1 .4 1.6-.6 2-3.5.7-4.1-.5-6.8-2.9-6.8-.8 0-1.1-.8-.8-1.8.2-1-.5-2.6-1.6-3.6-1.9-1.7-1.9-1.7-1.5.6.5 2.1.4 2.1-1.1-.5-2-3.5-2.8-3.4-2 .2z"/><path d="M209.6 257.9c-.7 1.1 2.2 7.1 3.5 7.1.5 0 .9-1.1.9-2.4 0-1.6-.7-2.6-2.1-2.9-1.2-.3-1.8-1-1.4-1.6.3-.6.4-1.1.1-1.1-.3 0-.7.4-1 .9zM221.3 280.5c-2 2.2-1.6 2.6 1.2 1.3 1.4-.6 2.5-1.5 2.5-2 0-1.3-2.4-.9-3.7.7zM226.2 283.5c0 1.6.2 2.2.5 1.2.2-.9.2-2.3 0-3-.3-.6-.5.1-.5 1.8zM202.3 285.6c-.9 1.9-.9 3.2-.2 4.6 1.1 2 1.2 1.9 2.9-.8 1.4-2 1.6-3.3.9-4.6-1.3-2.5-2.2-2.3-3.6.8zM193.1 315.6c-.1 1.2.7 3 1.7 4.1.9 1 1.3 1.3.9.7-.5-.7-1.2-2.5-1.7-4.1-.7-2.3-.8-2.4-.9-.7z"/></svg>