<svg xmlns="http://www.w3.org/2000/svg" xmlns:xlink="http://www.w3.org/1999/xlink" version="1.1" x="0px" y="0px" viewBox="206 206 100 125" enable-background="new 206 206 100 100" xml:space="preserve"><g><rect x="223.596" y="230.798" width="7.201" height="7.201"/><rect x="230.797" y="245.199" width="7.201" height="7.201"/><rect x="245.198" y="245.199" width="7.201" height="7.201"/><rect x="259.6" y="245.199" width="7.201" height="7.201"/><rect x="274.001" y="245.199" width="7.201" height="7.201"/><rect x="230.797" y="259.6" width="7.201" height="7.2"/><rect x="245.198" y="259.6" width="7.201" height="7.2"/><rect x="259.6" y="259.6" width="7.201" height="7.2"/><rect x="274.001" y="259.6" width="7.201" height="7.2"/><rect x="230.797" y="274.002" width="7.201" height="7.201"/><rect x="245.198" y="274.002" width="7.201" height="7.201"/><rect x="259.6" y="274.002" width="7.201" height="7.201"/><rect x="274.001" y="274.002" width="7.201" height="7.201"/><polygon points="223.596,274.002 223.596,266.801 223.596,259.6 223.596,252.4 223.596,245.199 223.596,237.998 216.396,237.998    216.396,245.199 216.396,252.4 216.396,259.6 216.396,266.801 216.396,274.002 216.396,281.203 216.396,288.404 223.596,288.404    223.596,281.203  "/><polygon points="274.001,288.404 266.801,288.404 259.6,288.404 252.4,288.404 245.198,288.404 237.998,288.404 230.797,288.404    223.596,288.404 223.596,295.604 230.797,295.604 237.998,295.604 245.198,295.604 252.4,295.604 259.6,295.604 266.801,295.604    274.001,295.604 281.202,295.604 288.403,295.604 288.403,288.404 281.202,288.404  "/><polygon points="288.403,237.998 288.403,245.199 288.403,252.4 288.403,259.6 288.403,266.801 288.403,274.002 288.403,281.203    288.403,288.404 295.604,288.404 295.604,281.203 295.604,274.002 295.604,266.801 295.604,259.6 295.604,252.4 295.604,245.199    295.604,237.998  "/><rect x="281.202" y="230.798" width="7.2" height="7.201"/><rect x="266.801" y="230.798" width="7.2" height="7.201"/><rect x="252.4" y="230.798" width="7.2" height="7.201"/><rect x="237.998" y="230.798" width="7.2" height="7.201"/><polygon points="237.998,223.597 237.998,216.396 230.797,216.396 230.797,223.597 230.797,230.798 237.998,230.798  "/><polygon points="252.4,223.597 252.4,216.396 245.198,216.396 245.198,223.597 245.198,230.798 252.4,230.798  "/><polygon points="266.801,223.597 266.801,216.396 259.6,216.396 259.6,223.597 259.6,230.798 266.801,230.798  "/><polygon points="281.202,223.597 281.202,216.396 274.001,216.396 274.001,223.597 274.001,230.798 281.202,230.798  "/></g><!--<text x="206" y="321" fill="#000000" font-size="5px" font-weight="bold" font-family="'Helvetica Neue', Helvetica, Arial-Unicode, Arial, Sans-serif">Created by Cuby Design</text><text x="206" y="326" fill="#000000" font-size="5px" font-weight="bold" font-family="'Helvetica Neue', Helvetica, Arial-Unicode, Arial, Sans-serif">from the Noun Project</text>--></svg>
